<svg xmlns="http://www.w3.org/2000/svg" viewBox="0 0 512 512">
  <defs>
    <linearGradient id="bg" x1="64" y1="56" x2="432" y2="456" gradientUnits="userSpaceOnUse">
      <stop offset="0" stop-color="#44b774"/>
      <stop offset="1" stop-color="#1f6b43"/>
    </linearGradient>
    <linearGradient id="sheet" x1="134" y1="118" x2="370" y2="380" gradientUnits="userSpaceOnUse">
      <stop offset="0" stop-color="#ffffff"/>
      <stop offset="1" stop-color="#edf7f0"/>
    </linearGradient>
    <linearGradient id="photo" x1="144" y1="180" x2="356" y2="336" gradientUnits="userSpaceOnUse">
      <stop offset="0" stop-color="#f8fffa"/>
      <stop offset="1" stop-color="#dff0e4"/>
    </linearGradient>
    <linearGradient id="badge" x1="180" y1="328" x2="332" y2="420" gradientUnits="userSpaceOnUse">
      <stop offset="0" stop-color="#173d2c"/>
      <stop offset="1" stop-color="#0f291d"/>
    </linearGradient>
  </defs>
  <rect width="512" height="512" rx="112" fill="url(#bg)"/>
  <circle cx="168" cy="126" r="108" fill="#ffffff" opacity=".08"/>
  <circle cx="388" cy="382" r="92" fill="#ffffff" opacity=".06"/>
  <g transform="translate(110 92)">
    <rect x="52" y="0" width="210" height="272" rx="34" fill="#dff2e5" opacity=".52"/>
    <rect x="12" y="30" width="236" height="288" rx="40" fill="url(#sheet)"/>
    <path d="M184 30h64v64" fill="#d7ecd9"/>
    <path d="M184 30l64 64h-42c-12 0-22-10-22-22Z" fill="#bedfca"/>
    <rect x="44" y="86" width="172" height="126" rx="26" fill="url(#photo)"/>
    <circle cx="84" cy="118" r="14" fill="#f2c06a"/>
    <path d="M58 186l54-58 34 34 24-26 46 50Z" fill="#87cca0"/>
    <path d="M44 212l68-84 34 34 24-26 60 76Z" fill="#2b8a57"/>
    <path d="M130 14v78" fill="none" stroke="#2b8a57" stroke-linecap="round" stroke-width="18"/>
    <path d="M98 46l32-32 32 32" fill="none" stroke="#2b8a57" stroke-linecap="round" stroke-linejoin="round" stroke-width="18"/>
    <rect x="56" y="228" width="148" height="62" rx="24" fill="url(#badge)"/>
    <text x="130" y="268" fill="#f6fff8" font-family="Avenir Next, Trebuchet MS, Segoe UI, sans-serif" font-size="38" font-weight="700" text-anchor="middle">PDF</text>
  </g>
</svg>
